<?xml version="1.0" standalone="no"?>
<!DOCTYPE svg PUBLIC "-//W3C//DTD SVG 20010904//EN"
 "http://www.w3.org/TR/2001/REC-SVG-20010904/DTD/svg10.dtd">
<svg version="1.0" xmlns="http://www.w3.org/2000/svg"
 width="812.000000pt" height="563.000000pt" viewBox="0 0 812.000000 563.000000"
 preserveAspectRatio="xMidYMid meet">

<g transform="translate(0.000000,563.000000) scale(0.100000,-0.100000)"
fill="#000000" stroke="none">
<path d="M4491 5615 c-116 -26 -218 -65 -307 -118 -85 -49 -182 -145 -2012
-1966 -1057 -1053 -1947 -1947 -1977 -1985 -212 -278 -253 -654 -106 -963 95
-198 225 -334 411 -428 129 -65 258 -95 411 -95 178 0 323 40 481 132 63 37
223 192 1218 1183 l1145 1140 7 -190 c4 -104 12 -489 16 -855 l9 -665 26 -100
c62 -236 201 -431 396 -558 70 -45 90 -55 185 -93 175 -70 440 -71 621 -4 209
78 167 39 1421 1285 l1137 1130 269 -275 268 -275 0 1132 0 1131 -62 6 c-35 3
-189 10 -343 16 -154 6 -660 26 -1124 45 -465 19 -846 34 -847 32 -2 -2 116
-115 261 -252 146 -137 265 -252 265 -255 0 -3 -153 -158 -340 -345 l-340
-340 0 805 c0 495 -4 838 -10 890 -28 229 -111 406 -265 569 -115 121 -256
208 -407 252 -97 27 -314 35 -407 14z"/>
</g>
</svg>
